# xmcd
#
# Track frame offsets:
#	150
#	14430
#	27974
#	40971
#	59790
#	75948
#	90388
#	104400
#	135224
#	148821
#	172666
#	188704
#	203541
#	225442
#	265421
#	291619
#	307411
#	321017
#	335094
#
# Disc length: 4754 seconds
#
# Revision: 0
# Processed by: cddbd v1.5.2PL0 Copyright (c) Steve Scherf et al.
# Submitted via: EZCDAudioConverter 1.3.4.1
#
DISCID=0d129013
DTITLE=Various Artist - Nigeria Special Volume 2
DYEAR=1900
DGENRE=
TTITLE0=Fubura Sekibo - Psychedelic Baby
TTITLE1=Black's' Zenith - Shango Oba Onina
TTITLE2=Twins Seven - Seven and His Golden Cabretas - Totobiroko (Ogbele)
TTITLE3=Professional Seagulls Dance Band Of Port Harcourt - Ibi Awo Iyi
TTITLE4=The Otarus - Omohupa
TTITLE5=Don Isaac Ezekiel Combination - The Lord's Prayer
TTITLE6=James Etamobe and His All Weather Band - Agboyabakpa
TTITLE7=People Star - Onwu Dinjo
TTITLE8=Bola Johnson and His Easy Life Top Beats - Jeka Dubu
TTITLE9=Emperor Dele Ojo and His Africana Internationals - Jekoyewa
TTITLE10=Commander In Chief Stephen Osita Osadebe and His Nigerian Sound Makers 
TTITLE10=/ Onyebu Chi
TTITLE11=Paulson Kalu Afrikhanah and His Stars 25 - Ochea Special
TTITLE12=Fidel Sax Bateke and The Voices Of Darkness - Motako
TTITLE13=Opotopo (Easy Kabaka Brown) - Agboho
TTITLE14=Tunji Oyelana and The Benders - Iwo Ko La Dami
TTITLE15=Etubom Rex Williams and His Nigerian Artistes - Isisp 2
TTITLE16=Peacocks International Guitar Band - Onye Aghala Nwanneya
TTITLE17=The Nkengas - Anyi Bundi Igbo
TTITLE18=Joy Nwosu and Dan Satch - Egwo Umu Agbogho
EXTD=
EXTT0=
EXTT1=
EXTT2=
EXTT3=
EXTT4=
EXTT5=
EXTT6=
EXTT7=
EXTT8=
EXTT9=
EXTT10=
EXTT11=
EXTT12=
EXTT13=
EXTT14=
EXTT15=
EXTT16=
EXTT17=
EXTT18=
PLAYORDER=
